<svg width="100%" height="56" viewBox="0 0 239 147" fill="none" xmlns="http://www.w3.org/2000/svg" class="css-6c3ezp"><path d="M228.57 10.1088L201.29 21.3107C201.29 21.3107 228.46 10.2175 228.46 10.1088H149.81H149.7C149.7 10.6525 149.7 11.0876 149.7 11.6314C149.59 14.2415 149.15 16.7429 148.38 19.0268C147.39 22.2895 145.85 25.3347 143.76 27.9449C141.01 31.6427 137.38 34.7966 133.09 36.863C132.98 36.863 132.87 36.9717 132.87 36.9717C132.65 37.0805 132.43 37.1893 132.1 37.298H131.99C131.77 37.4068 131.77 37.4068 131.66 37.4068C131.66 37.4068 131.66 37.4068 131.55 37.4068V10.1088H128.47H114.94H105.81H101.52C100.97 10.1088 100.42 10.5438 100.42 11.0876V11.9576V15.4379C101.3 14.2415 102.73 13.4802 104.38 13.4802C105.26 13.4802 106.14 13.6977 106.8 14.1328C106.91 14.1328 107.02 14.2415 107.13 14.2415C107.46 14.459 107.68 14.6766 107.9 14.7853C108.78 15.4379 109.55 16.1992 110.21 17.0692L111.75 19.4619L114.83 24.3559L106.47 37.4068C106.03 37.1893 105.7 37.0805 105.15 36.7542C100.97 34.5791 97.34 31.5339 94.48 27.8362C92.5 25.1172 90.96 22.1808 89.86 18.9181C89.2 16.6342 88.76 14.3503 88.54 11.8489C88.54 11.1963 88.43 10.5438 88.43 10H10.11L37.06 21.202L10 10.1088C10.88 13.154 11.98 16.0904 13.08 19.0268L34.2 27.9449H17.15C18.69 30.9901 20.34 34.0353 22.21 36.863L58.62 45.7811H28.37C30.79 48.935 33.32 51.8715 35.96 54.6991L82.93 63.8347H45.42C49.27 67.0975 53.34 70.0339 57.63 72.7528L107.13 81.6709H74.57C87.11 87 100.64 90.0452 114.94 90.589H119.23H123.52C137.82 90.0452 151.46 86.8912 163.89 81.6709H131.33L180.94 72.7528C185.23 70.0339 189.3 66.9887 193.15 63.8347H155.64L202.61 54.9167C205.25 52.089 207.78 49.0438 210.2 45.9986H179.95L216.36 37.0805C218.12 34.1441 219.88 31.2076 221.42 28.1624H204.26L225.38 19.2443C226.7 16.0904 227.69 13.154 228.57 10.1088Z" fill="#E6E7E8"></path><path d="M117.47 19.3532C119.779 19.3532 121.65 17.5029 121.65 15.2204C121.65 12.938 119.779 11.0876 117.47 11.0876C115.162 11.0876 113.29 12.938 113.29 15.2204C113.29 17.5029 115.162 19.3532 117.47 19.3532Z" fill="#99999B"></path><path d="M149.81 10.1088H149.7C149.7 10.6525 149.7 11.0876 149.7 11.6314C149.59 14.2415 149.15 16.7429 148.38 19.0268C147.39 22.2895 145.85 25.3347 143.76 27.9449C141.01 31.6427 137.38 34.7966 133.09 36.863C132.98 36.863 132.87 36.9718 132.87 36.9718C132.65 37.0805 132.43 37.1893 132.1 37.298H131.99C131.77 37.4068 131.77 37.4068 131.66 37.4068C131.66 37.4068 131.66 37.4068 131.55 37.4068V10.1088H128.47H114.94H105.81H101.52C100.97 10.1088 100.42 10.5438 100.42 11.0876V11.9576V15.4379C101.3 14.2415 102.73 13.4802 104.38 13.4802C105.26 13.4802 106.14 13.6977 106.8 14.1328C106.91 14.1328 107.02 14.2415 107.13 14.2415C107.46 14.459 107.68 14.6766 107.9 14.7853C108.78 15.4379 109.55 16.1992 110.21 17.0692L111.75 19.4619L114.83 24.3559L106.47 37.4068C106.03 37.1893 105.7 37.0805 105.15 36.7542C100.97 34.5791 97.3404 31.5339 94.4804 27.8362C92.5004 25.1172 90.9604 22.1808 89.8604 18.9181C89.2004 16.6342 88.7604 14.3503 88.5404 11.8489C88.5404 11.1963 88.4304 10.5438 88.4304 10H10.1104L37.0604 21.202L37.9404 21.5282L38.7104 22.072L119.23 81.5621L199.75 22.1808L200.52 21.637L201.4 21.3107C201.4 21.3107 228.57 10.2175 228.57 10.1088H149.81ZM117.58 11.9576C119.01 11.9576 120.22 13.154 120.22 14.5678C120.22 15.9816 119.01 17.178 117.58 17.178C116.15 17.178 114.94 15.9816 114.94 14.5678C114.94 13.154 116.15 11.9576 117.58 11.9576Z" fill="#E7E7E6"></path><path d="M228.57 10.1088L201.29 21.3107L200.41 21.637L199.64 22.1808L119.23 81.5622L38.6 22.1808L37.83 21.637L36.95 21.3107L10 10.1088C10.88 13.154 11.98 16.0904 13.08 19.0268L34.2 27.9449H17.15C18.69 30.9901 20.34 34.0353 22.21 36.863L58.62 45.7811H28.37C30.79 48.935 33.32 51.8715 35.96 54.6992L82.93 63.8348H45.42C49.27 67.0975 53.34 70.0339 57.63 72.7528L107.13 81.6709H74.57C87.11 87 100.64 90.0452 114.94 90.589H119.23H123.52C137.82 90.0452 151.46 86.8913 163.89 81.6709H131.33L180.94 72.7528C185.23 70.0339 189.3 66.9887 193.15 63.8348H155.64L202.61 54.9167C205.25 52.089 207.78 49.0438 210.2 45.9986H179.95L216.36 37.0805C218.12 34.1441 219.88 31.2076 221.42 28.1624H204.26L225.38 19.2444C226.7 16.0904 227.69 13.154 228.57 10.1088Z" fill="#CED4D4"></path><path d="M128.689 43.8236H120.219H110.759H83.9194L94.2594 61.4422H110.759H128.689H146.179L156.519 43.8236H128.689Z" fill="#0055A2"></path><path d="M146.179 61.4421H128.689V91.3503L138.369 74.8193L146.179 61.4421Z" fill="#CE2832"></path><path d="M111.75 61.4421V91.3503L120.22 105.924L128.69 91.3503V61.4421H111.75Z" fill="#F2F2F2"></path><path d="M110.759 61.4421H94.2593L102.069 74.8193L111.749 91.3503V61.4421H110.759Z" fill="#CE2832"></path><path d="M120.219 47.5206L121.649 50.4571L124.839 50.8921L122.529 53.176L123.079 56.33L120.219 54.8074L117.249 56.33L117.909 53.176L115.489 50.8921L118.789 50.4571L120.219 47.5206Z" fill="white"></path><path d="M137.269 47.5206L138.699 50.4571L141.999 50.8921L139.579 53.176L140.129 56.33L137.269 54.8074L134.409 56.33L134.959 53.176L132.649 50.8921L135.839 50.4571L137.269 47.5206Z" fill="white"></path><path d="M103.059 47.5206L104.599 50.4571L107.789 50.8921L105.479 53.176L106.029 56.33L103.059 54.8074L100.199 56.33L100.749 53.176L98.4395 50.8921L101.629 50.4571L103.059 47.5206Z" fill="white"></path><path d="M48.6595 137.051C46.7715 137.051 45.2835 136.539 44.1955 135.515C43.1075 134.491 42.5635 133.035 42.5635 131.147V119.867H44.7475V131.027C44.7475 132.339 45.0915 133.347 45.7795 134.051C46.4835 134.739 47.4435 135.083 48.6595 135.083C49.8755 135.083 50.8355 134.739 51.5395 134.051C52.2435 133.347 52.5955 132.339 52.5955 131.027V119.867H54.7795V131.147C54.7795 133.035 54.2275 134.491 53.1235 135.515C52.0355 136.539 50.5475 137.051 48.6595 137.051Z" fill="white"></path><path d="M67.9978 137.051C66.0938 137.051 64.6059 136.547 63.5339 135.539C62.4619 134.531 61.9258 133.123 61.9258 131.315H64.1098C64.1098 132.499 64.4539 133.435 65.1419 134.123C65.8299 134.795 66.7738 135.131 67.9738 135.131C69.0298 135.131 69.8459 134.891 70.4219 134.411C70.9979 133.931 71.2859 133.251 71.2859 132.371C71.2859 131.635 71.0779 131.043 70.6618 130.595C70.2619 130.131 69.5738 129.731 68.5978 129.395L65.8139 128.411C63.5578 127.691 62.4299 126.219 62.4299 123.995C62.4299 123.115 62.6538 122.331 63.1018 121.643C63.5498 120.955 64.1738 120.427 64.9738 120.059C65.7738 119.675 66.6858 119.483 67.7098 119.483C69.3578 119.483 70.6779 119.947 71.6699 120.875C72.6619 121.803 73.1579 123.051 73.1579 124.619H70.9739C70.9739 123.579 70.6858 122.779 70.1098 122.219C69.5338 121.643 68.7098 121.355 67.6378 121.355C66.7098 121.355 65.9738 121.587 65.4298 122.051C64.8858 122.499 64.6139 123.107 64.6139 123.875C64.6139 124.579 64.8459 125.171 65.3099 125.651C65.7899 126.115 66.5499 126.523 67.5899 126.875L70.1818 127.787C72.3738 128.539 73.4698 130.043 73.4698 132.299C73.4698 133.739 72.9739 134.891 71.9818 135.755C70.9898 136.619 69.6618 137.051 67.9978 137.051Z" fill="white"></path><path d="M92.0355 119.867H94.1475L99.9075 133.571L105.668 119.867H107.756V136.667H105.668V124.403L100.748 136.667H99.0675L94.1235 124.331V136.667H92.0355V119.867Z" fill="white"></path><path d="M124.062 137.051C122.318 137.051 120.79 136.659 119.478 135.875C118.166 135.075 117.158 134.011 116.454 132.683C115.75 131.339 115.398 129.867 115.398 128.267C115.398 126.667 115.75 125.203 116.454 123.875C117.158 122.531 118.166 121.467 119.478 120.683C120.79 119.883 122.318 119.483 124.062 119.483C125.806 119.483 127.334 119.883 128.646 120.683C129.958 121.467 130.966 122.531 131.67 123.875C132.374 125.203 132.726 126.667 132.726 128.267C132.726 129.867 132.374 131.339 131.67 132.683C130.966 134.011 129.958 135.075 128.646 135.875C127.334 136.659 125.806 137.051 124.062 137.051ZM124.062 135.083C125.374 135.083 126.51 134.779 127.47 134.171C128.43 133.547 129.166 132.723 129.678 131.699C130.19 130.659 130.438 129.515 130.422 128.267C130.438 127.019 130.19 125.883 129.678 124.859C129.166 123.819 128.43 122.995 127.47 122.387C126.51 121.763 125.374 121.451 124.062 121.451C122.75 121.451 121.606 121.763 120.63 122.387C119.67 122.995 118.934 123.819 118.422 124.859C117.91 125.883 117.662 127.019 117.678 128.267C117.662 129.515 117.91 130.659 118.422 131.699C118.934 132.723 119.67 133.547 120.63 134.171C121.606 134.779 122.75 135.083 124.062 135.083Z" fill="white"></path><path d="M147.915 128.099C148.875 128.211 149.675 128.619 150.315 129.323C150.971 130.027 151.299 130.947 151.299 132.083C151.299 133.507 150.835 134.627 149.907 135.443C148.979 136.259 147.707 136.667 146.091 136.667H140.331V119.867H145.851C147.467 119.867 148.739 120.251 149.667 121.019C150.611 121.787 151.083 122.851 151.083 124.211C151.083 125.315 150.803 126.187 150.243 126.827C149.683 127.467 148.907 127.891 147.915 128.099ZM142.515 121.811V127.187H145.923C146.835 127.187 147.555 126.947 148.083 126.467C148.627 125.987 148.899 125.331 148.899 124.499C148.899 123.635 148.619 122.971 148.059 122.507C147.515 122.043 146.755 121.811 145.779 121.811H142.515ZM146.043 134.723C147.003 134.723 147.755 134.475 148.299 133.979C148.843 133.467 149.115 132.763 149.115 131.867C149.115 131.051 148.843 130.387 148.299 129.875C147.771 129.363 147.083 129.107 146.235 129.107H142.515V134.723H146.043Z" fill="white"></path><path d="M159.1 119.867H161.284V136.667H159.1V119.867Z" fill="white"></path><path d="M169.923 119.867H172.107V134.603H179.259V136.667H169.923V119.867Z" fill="white"></path><path d="M186.957 119.867H196.509V121.835H189.141V127.331H196.509V129.299H189.141V134.699H196.509V136.667H186.957V119.867Z" fill="white"></path></svg>